<mxfile host="app.diagrams.net" modified="2020-12-08T13:59:35.272Z" agent="5.0 (Macintosh; Intel Mac OS X 10_15_7) AppleWebKit/537.36 (KHTML, like Gecko) Chrome/86.0.4240.193 Safari/537.36" etag="3J1k_MW1tSyqKfEmjJI8" version="13.10.4" type="github">
  <diagram name="Page-1" id="e7e014a7-5840-1c2e-5031-d8a46d1fe8dd">
    <mxGraphModel dx="1940" dy="722" grid="1" gridSize="10" guides="1" tooltips="1" connect="1" arrows="1" fold="1" page="1" pageScale="1" pageWidth="827" pageHeight="583" background="#ffffff" math="0" shadow="0">
      <root>
        <mxCell id="0" />
        <mxCell id="1" parent="0" />
        <mxCell id="do6MTwqMukJzwOy1jM6o-50" value="E/R" style="text;strokeColor=none;fillColor=none;html=1;fontSize=24;fontStyle=1;verticalAlign=middle;align=center;rounded=0;sketch=0;" vertex="1" parent="1">
          <mxGeometry x="640" y="180" width="100" height="40" as="geometry" />
        </mxCell>
        <mxCell id="do6MTwqMukJzwOy1jM6o-55" value="&lt;ul style=&quot;font-size: 32px&quot;&gt;&lt;li style=&quot;font-size: 32px&quot;&gt;Corrieri(&lt;b&gt;Id_corriere&lt;/b&gt;&lt;u&gt;,&lt;/u&gt;nome,telefono,città_lavoro)&lt;/li&gt;&lt;li style=&quot;font-size: 32px&quot;&gt;Consegne(&lt;b&gt;Id_consegna, &lt;/b&gt;durata, data, ora,&amp;nbsp;&lt;u&gt;Id_corriere)&lt;/u&gt;&lt;/li&gt;&lt;li style=&quot;font-size: 32px&quot;&gt;Modelli(&lt;b&gt;Id_modello,&lt;/b&gt;&amp;nbsp;nome, descrizione)&lt;/li&gt;&lt;li style=&quot;font-size: 32px&quot;&gt;Tessuti(&lt;b&gt;Id_tessuto&lt;/b&gt;&lt;u&gt;,&lt;/u&gt;&amp;nbsp;nome&lt;u&gt;)&lt;/u&gt;&lt;/li&gt;&lt;li style=&quot;font-size: 32px&quot;&gt;Divani(&lt;b&gt;numero_progressivo&lt;/b&gt;, n_posti, giorni_realizzazione, prezzo, &lt;u&gt;Id_modello, Id_colore, Id_tessuto&lt;/u&gt;)&lt;/li&gt;&lt;li&gt;Clienti(&lt;b&gt;codice_fiscale,&lt;/b&gt;&amp;nbsp;data_nascita, telefono, indirizzo, città_residenza)&lt;/li&gt;&lt;li&gt;Ordini(&lt;b&gt;Id_ordine, &lt;/b&gt;processato, data_ordine,&amp;nbsp;&lt;u&gt;Id_consegna, codice_fiscale&lt;/u&gt;)&lt;/li&gt;&lt;li&gt;Colori(&lt;b&gt;Id_colore,&amp;nbsp;&lt;/b&gt;nome)&lt;/li&gt;&lt;li&gt;Modelli_Tessuti(&lt;b&gt;Id&lt;/b&gt;&lt;b&gt;_modello_tessuto,&amp;nbsp;&lt;/b&gt;&lt;u&gt;Id_modello, Id_tessuto&lt;/u&gt;)&lt;/li&gt;&lt;li&gt;Tessuti_Colori(&lt;b&gt;Id_tessuto_colore&lt;/b&gt;,&amp;nbsp;&lt;u&gt;Id_colore, Id_tessuto&lt;/u&gt;)&lt;/li&gt;&lt;li&gt;Divani_Ordini(&lt;b&gt;Id_divano_ordine&lt;/b&gt;,&amp;nbsp;&lt;u&gt;Id_ordine, Id_divano, numero_progressivo&lt;/u&gt;)&lt;/li&gt;&lt;/ul&gt;" style="text;strokeColor=none;fillColor=none;html=1;whiteSpace=wrap;verticalAlign=middle;overflow=hidden;rounded=0;sketch=0;fontColor=#1A1A1A;fontSize=32;" vertex="1" parent="1">
          <mxGeometry x="250" y="1110" width="1320" height="630" as="geometry" />
        </mxCell>
        <mxCell id="do6MTwqMukJzwOy1jM6o-56" value="SCHEMA TABELLE" style="text;strokeColor=none;fillColor=none;html=1;fontSize=24;fontStyle=1;verticalAlign=middle;align=center;rounded=0;sketch=0;" vertex="1" parent="1">
          <mxGeometry x="670" y="1080" width="100" height="40" as="geometry" />
        </mxCell>
        <mxCell id="do6MTwqMukJzwOy1jM6o-57" value="LOGICO" style="text;strokeColor=none;fillColor=none;html=1;fontSize=24;fontStyle=1;verticalAlign=middle;align=center;rounded=0;sketch=0;" vertex="1" parent="1">
          <mxGeometry x="2040" y="170" width="100" height="40" as="geometry" />
        </mxCell>
        <mxCell id="do6MTwqMukJzwOy1jM6o-59" value="&lt;div style=&quot;box-sizing: border-box ; width: 100% ; background: #e4e4e4 ; padding: 2px&quot;&gt;Modelli&lt;/div&gt;&lt;table style=&quot;width: 100% ; font-size: 1em&quot; cellpadding=&quot;2&quot; cellspacing=&quot;0&quot;&gt;&lt;tbody&gt;&lt;tr&gt;&lt;td&gt;PK&lt;/td&gt;&lt;td&gt;Id_modello&lt;br&gt;&lt;/td&gt;&lt;/tr&gt;&lt;tr&gt;&lt;td&gt;&lt;br&gt;&lt;/td&gt;&lt;td&gt;&lt;br&gt;nome&lt;br&gt;descrizione&lt;br&gt;&lt;br&gt;&lt;/td&gt;&lt;/tr&gt;&lt;tr&gt;&lt;td&gt;&amp;nbsp;&lt;/td&gt;&lt;td&gt;&lt;br&gt;&lt;/td&gt;&lt;/tr&gt;&lt;/tbody&gt;&lt;/table&gt;" style="verticalAlign=top;align=left;overflow=fill;html=1;fillColor=#F694C1;strokeColor=#AF45ED;fontColor=#095C86;" vertex="1" parent="1">
          <mxGeometry x="1640" y="260" width="180" height="125" as="geometry" />
        </mxCell>
        <mxCell id="do6MTwqMukJzwOy1jM6o-86" style="edgeStyle=orthogonalEdgeStyle;rounded=0;orthogonalLoop=1;jettySize=auto;html=1;entryX=0.394;entryY=1;entryDx=0;entryDy=0;entryPerimeter=0;startArrow=ERmany;startFill=0;endArrow=none;endFill=0;" edge="1" parent="1" source="do6MTwqMukJzwOy1jM6o-61" target="do6MTwqMukJzwOy1jM6o-59">
          <mxGeometry relative="1" as="geometry" />
        </mxCell>
        <mxCell id="do6MTwqMukJzwOy1jM6o-89" style="edgeStyle=orthogonalEdgeStyle;rounded=0;orthogonalLoop=1;jettySize=auto;html=1;exitX=0.75;exitY=0;exitDx=0;exitDy=0;entryX=0.25;entryY=1;entryDx=0;entryDy=0;startArrow=ERmany;startFill=0;endArrow=oval;endFill=0;" edge="1" parent="1" source="do6MTwqMukJzwOy1jM6o-61" target="do6MTwqMukJzwOy1jM6o-62">
          <mxGeometry relative="1" as="geometry" />
        </mxCell>
        <mxCell id="do6MTwqMukJzwOy1jM6o-91" style="edgeStyle=orthogonalEdgeStyle;rounded=0;orthogonalLoop=1;jettySize=auto;html=1;exitX=0.25;exitY=0;exitDx=0;exitDy=0;startArrow=ERmany;startFill=0;endArrow=oval;endFill=0;entryX=0.5;entryY=1;entryDx=0;entryDy=0;" edge="1" parent="1" source="do6MTwqMukJzwOy1jM6o-61" target="do6MTwqMukJzwOy1jM6o-75">
          <mxGeometry relative="1" as="geometry">
            <mxPoint x="3040" y="500" as="targetPoint" />
          </mxGeometry>
        </mxCell>
        <mxCell id="do6MTwqMukJzwOy1jM6o-61" value="&lt;div style=&quot;box-sizing: border-box ; width: 100% ; background: #e4e4e4 ; padding: 2px&quot;&gt;Divani&lt;/div&gt;&lt;table style=&quot;width: 100% ; font-size: 1em&quot; cellpadding=&quot;2&quot; cellspacing=&quot;0&quot;&gt;&lt;tbody&gt;&lt;tr&gt;&lt;td&gt;PK&lt;/td&gt;&lt;td&gt;numero_progressivo&lt;/td&gt;&lt;/tr&gt;&lt;tr&gt;&lt;td&gt;&lt;br&gt;&lt;br&gt;FK&lt;/td&gt;&lt;td&gt;n_posti&lt;br&gt;giorni_realizzazione&lt;br&gt;prezzo&lt;br&gt;&lt;br&gt;Id_modello&lt;br&gt;Id_colore&amp;nbsp;&lt;br&gt;Id_tessuto&lt;br&gt;&lt;br&gt;&lt;br&gt;&lt;/td&gt;&lt;/tr&gt;&lt;tr&gt;&lt;td&gt;&amp;nbsp;&lt;/td&gt;&lt;td&gt;&lt;br&gt;&lt;/td&gt;&lt;/tr&gt;&lt;/tbody&gt;&lt;/table&gt;" style="verticalAlign=top;align=left;overflow=fill;html=1;fillColor=#F694C1;strokeColor=#AF45ED;fontColor=#095C86;" vertex="1" parent="1">
          <mxGeometry x="1690" y="650" width="190" height="150" as="geometry" />
        </mxCell>
        <mxCell id="do6MTwqMukJzwOy1jM6o-62" value="&lt;div style=&quot;box-sizing: border-box ; width: 100% ; background: #e4e4e4 ; padding: 2px&quot;&gt;Tessuti&lt;/div&gt;&lt;table style=&quot;width: 100% ; font-size: 1em&quot; cellpadding=&quot;2&quot; cellspacing=&quot;0&quot;&gt;&lt;tbody&gt;&lt;tr&gt;&lt;td&gt;PK&lt;/td&gt;&lt;td&gt;Id_tessuto&lt;br&gt;&lt;/td&gt;&lt;/tr&gt;&lt;tr&gt;&lt;td&gt;&lt;br&gt;&lt;/td&gt;&lt;td&gt;nome&lt;br&gt;&lt;br&gt;&lt;br&gt;&lt;br&gt;&lt;br&gt;&lt;br&gt;&lt;/td&gt;&lt;/tr&gt;&lt;tr&gt;&lt;td&gt;&amp;nbsp;&lt;/td&gt;&lt;td&gt;&lt;br&gt;&lt;/td&gt;&lt;/tr&gt;&lt;/tbody&gt;&lt;/table&gt;" style="verticalAlign=top;align=left;overflow=fill;html=1;fillColor=#F694C1;strokeColor=#AF45ED;fontColor=#095C86;" vertex="1" parent="1">
          <mxGeometry x="2320" y="260" width="180" height="140" as="geometry" />
        </mxCell>
        <mxCell id="do6MTwqMukJzwOy1jM6o-78" style="edgeStyle=orthogonalEdgeStyle;rounded=0;orthogonalLoop=1;jettySize=auto;html=1;endArrow=none;endFill=0;startArrow=ERmany;startFill=0;" edge="1" parent="1" source="do6MTwqMukJzwOy1jM6o-63" target="do6MTwqMukJzwOy1jM6o-74">
          <mxGeometry relative="1" as="geometry" />
        </mxCell>
        <mxCell id="do6MTwqMukJzwOy1jM6o-81" style="edgeStyle=orthogonalEdgeStyle;rounded=0;orthogonalLoop=1;jettySize=auto;html=1;entryX=0;entryY=0.5;entryDx=0;entryDy=0;startArrow=ERmany;startFill=0;endArrow=none;endFill=0;" edge="1" parent="1" source="do6MTwqMukJzwOy1jM6o-63" target="do6MTwqMukJzwOy1jM6o-77">
          <mxGeometry relative="1" as="geometry" />
        </mxCell>
        <mxCell id="do6MTwqMukJzwOy1jM6o-63" value="&lt;div style=&quot;box-sizing: border-box ; width: 100% ; background: #e4e4e4 ; padding: 2px&quot;&gt;Ordini&lt;/div&gt;&lt;table style=&quot;width: 100% ; font-size: 1em&quot; cellpadding=&quot;2&quot; cellspacing=&quot;0&quot;&gt;&lt;tbody&gt;&lt;tr&gt;&lt;td&gt;PK&lt;/td&gt;&lt;td&gt;Id_ordine&lt;br&gt;&lt;/td&gt;&lt;/tr&gt;&lt;tr&gt;&lt;td&gt;&lt;br&gt;&lt;br&gt;FK&lt;/td&gt;&lt;td&gt;processato bool&lt;br&gt;data_ordine&lt;br&gt;&lt;br&gt;codice_fiscale&lt;br&gt;Id_consegna&lt;/td&gt;&lt;/tr&gt;&lt;tr&gt;&lt;td&gt;&amp;nbsp;&lt;/td&gt;&lt;td&gt;&lt;br&gt;&lt;/td&gt;&lt;/tr&gt;&lt;/tbody&gt;&lt;/table&gt;" style="verticalAlign=top;align=left;overflow=fill;html=1;fillColor=#F694C1;strokeColor=#AF45ED;fontColor=#095C86;" vertex="1" parent="1">
          <mxGeometry x="2390" y="640" width="180" height="125" as="geometry" />
        </mxCell>
        <mxCell id="do6MTwqMukJzwOy1jM6o-87" style="edgeStyle=orthogonalEdgeStyle;rounded=0;orthogonalLoop=1;jettySize=auto;html=1;startArrow=ERmany;startFill=0;endArrow=none;endFill=0;" edge="1" parent="1" source="do6MTwqMukJzwOy1jM6o-67" target="do6MTwqMukJzwOy1jM6o-59">
          <mxGeometry relative="1" as="geometry" />
        </mxCell>
        <mxCell id="do6MTwqMukJzwOy1jM6o-92" style="edgeStyle=orthogonalEdgeStyle;rounded=0;orthogonalLoop=1;jettySize=auto;html=1;startArrow=ERmany;startFill=0;endArrow=none;endFill=0;" edge="1" parent="1" source="do6MTwqMukJzwOy1jM6o-67" target="do6MTwqMukJzwOy1jM6o-62">
          <mxGeometry relative="1" as="geometry" />
        </mxCell>
        <mxCell id="do6MTwqMukJzwOy1jM6o-67" value="&lt;div style=&quot;box-sizing: border-box ; width: 100% ; background: #e4e4e4 ; padding: 2px&quot;&gt;Modelli_Tessuti&lt;/div&gt;&lt;table style=&quot;width: 100% ; font-size: 1em&quot; cellpadding=&quot;2&quot; cellspacing=&quot;0&quot;&gt;&lt;tbody&gt;&lt;tr&gt;&lt;td&gt;PK&lt;/td&gt;&lt;td&gt;Id_modello_tessuto&lt;br&gt;&lt;/td&gt;&lt;/tr&gt;&lt;tr&gt;&lt;td&gt;FK&lt;/td&gt;&lt;td&gt;&lt;br&gt;&lt;br&gt;Id_modello&lt;br&gt;Id_tessuto&lt;br&gt;&lt;br&gt;&lt;br&gt;&lt;/td&gt;&lt;/tr&gt;&lt;tr&gt;&lt;td&gt;&amp;nbsp;&lt;/td&gt;&lt;td&gt;&lt;br&gt;&lt;/td&gt;&lt;/tr&gt;&lt;/tbody&gt;&lt;/table&gt;" style="verticalAlign=top;align=left;overflow=fill;html=1;fillColor=#f8cecc;strokeColor=#b85450;" vertex="1" parent="1">
          <mxGeometry x="1978" y="300" width="180" height="125" as="geometry" />
        </mxCell>
        <mxCell id="do6MTwqMukJzwOy1jM6o-83" style="edgeStyle=orthogonalEdgeStyle;rounded=0;orthogonalLoop=1;jettySize=auto;html=1;entryX=-0.006;entryY=0.416;entryDx=0;entryDy=0;entryPerimeter=0;startArrow=ERmany;startFill=0;endArrow=none;endFill=0;" edge="1" parent="1" source="do6MTwqMukJzwOy1jM6o-71" target="do6MTwqMukJzwOy1jM6o-63">
          <mxGeometry relative="1" as="geometry" />
        </mxCell>
        <mxCell id="do6MTwqMukJzwOy1jM6o-85" style="edgeStyle=orthogonalEdgeStyle;rounded=0;orthogonalLoop=1;jettySize=auto;html=1;entryX=1.021;entryY=0.447;entryDx=0;entryDy=0;entryPerimeter=0;startArrow=ERmany;startFill=0;endArrow=none;endFill=0;" edge="1" parent="1" source="do6MTwqMukJzwOy1jM6o-71" target="do6MTwqMukJzwOy1jM6o-61">
          <mxGeometry relative="1" as="geometry" />
        </mxCell>
        <mxCell id="do6MTwqMukJzwOy1jM6o-71" value="&lt;div style=&quot;box-sizing: border-box ; width: 100% ; background: #e4e4e4 ; padding: 2px&quot;&gt;Divani_Ordini&lt;/div&gt;&lt;table style=&quot;width: 100% ; font-size: 1em&quot; cellpadding=&quot;2&quot; cellspacing=&quot;0&quot;&gt;&lt;tbody&gt;&lt;tr&gt;&lt;td&gt;PK&lt;/td&gt;&lt;td&gt;Id_divano_ordine&lt;br&gt;&lt;/td&gt;&lt;/tr&gt;&lt;tr&gt;&lt;td&gt;FK&lt;/td&gt;&lt;td&gt;&lt;br&gt;&lt;br&gt;Id_ordine&lt;br&gt;Id_divano&lt;br&gt;num_pezzi&lt;br&gt;&lt;br&gt;&lt;br&gt;&lt;/td&gt;&lt;/tr&gt;&lt;tr&gt;&lt;td&gt;&amp;nbsp;&lt;/td&gt;&lt;td&gt;&lt;br&gt;&lt;/td&gt;&lt;/tr&gt;&lt;/tbody&gt;&lt;/table&gt;" style="verticalAlign=top;align=left;overflow=fill;html=1;fillColor=#f8cecc;strokeColor=#b85450;" vertex="1" parent="1">
          <mxGeometry x="2030" y="645" width="180" height="125" as="geometry" />
        </mxCell>
        <mxCell id="do6MTwqMukJzwOy1jM6o-93" style="edgeStyle=orthogonalEdgeStyle;rounded=0;orthogonalLoop=1;jettySize=auto;html=1;entryX=1;entryY=0.5;entryDx=0;entryDy=0;startArrow=ERmany;startFill=0;endArrow=none;endFill=0;" edge="1" parent="1" source="do6MTwqMukJzwOy1jM6o-72" target="do6MTwqMukJzwOy1jM6o-62">
          <mxGeometry relative="1" as="geometry" />
        </mxCell>
        <mxCell id="do6MTwqMukJzwOy1jM6o-94" style="edgeStyle=orthogonalEdgeStyle;rounded=0;orthogonalLoop=1;jettySize=auto;html=1;startArrow=ERmany;startFill=0;endArrow=none;endFill=0;" edge="1" parent="1" source="do6MTwqMukJzwOy1jM6o-72" target="do6MTwqMukJzwOy1jM6o-75">
          <mxGeometry relative="1" as="geometry" />
        </mxCell>
        <mxCell id="do6MTwqMukJzwOy1jM6o-72" value="&lt;div style=&quot;box-sizing: border-box ; width: 100% ; background: #e4e4e4 ; padding: 2px&quot;&gt;Tessuti_Colori&lt;/div&gt;&lt;table style=&quot;width: 100% ; font-size: 1em&quot; cellpadding=&quot;2&quot; cellspacing=&quot;0&quot;&gt;&lt;tbody&gt;&lt;tr&gt;&lt;td&gt;PK&lt;/td&gt;&lt;td&gt;Id_tessuto_colore&lt;br&gt;&lt;/td&gt;&lt;/tr&gt;&lt;tr&gt;&lt;td&gt;FK&lt;/td&gt;&lt;td&gt;&lt;br&gt;&lt;br&gt;Id_tessuto&lt;br&gt;Id_colore&lt;br&gt;&lt;br&gt;&lt;br&gt;&lt;/td&gt;&lt;/tr&gt;&lt;tr&gt;&lt;td&gt;&amp;nbsp;&lt;/td&gt;&lt;td&gt;&lt;br&gt;&lt;/td&gt;&lt;/tr&gt;&lt;/tbody&gt;&lt;/table&gt;" style="verticalAlign=top;align=left;overflow=fill;html=1;fillColor=#f8cecc;strokeColor=#b85450;" vertex="1" parent="1">
          <mxGeometry x="2650" y="267.5" width="180" height="125" as="geometry" />
        </mxCell>
        <mxCell id="do6MTwqMukJzwOy1jM6o-74" value="&lt;div style=&quot;box-sizing: border-box ; width: 100% ; background: #e4e4e4 ; padding: 2px&quot;&gt;Clienti&lt;/div&gt;&lt;table style=&quot;width: 100% ; font-size: 1em&quot; cellpadding=&quot;2&quot; cellspacing=&quot;0&quot;&gt;&lt;tbody&gt;&lt;tr&gt;&lt;td&gt;PK&lt;/td&gt;&lt;td&gt;codice_fiscale&lt;br&gt;&lt;/td&gt;&lt;/tr&gt;&lt;tr&gt;&lt;td&gt;&lt;br&gt;&lt;br&gt;&lt;/td&gt;&lt;td&gt;data_nascita&lt;br&gt;telefono&lt;br&gt;indirizzo&lt;br&gt;città_residenza&lt;br&gt;&lt;br&gt;&lt;br&gt;&lt;/td&gt;&lt;/tr&gt;&lt;tr&gt;&lt;td&gt;&amp;nbsp;&lt;/td&gt;&lt;td&gt;&lt;br&gt;&lt;/td&gt;&lt;/tr&gt;&lt;/tbody&gt;&lt;/table&gt;" style="verticalAlign=top;align=left;overflow=fill;html=1;fillColor=#F694C1;strokeColor=#AF45ED;fontColor=#095C86;" vertex="1" parent="1">
          <mxGeometry x="2400" y="860" width="180" height="125" as="geometry" />
        </mxCell>
        <mxCell id="do6MTwqMukJzwOy1jM6o-75" value="&lt;div style=&quot;box-sizing: border-box ; width: 100% ; background: #e4e4e4 ; padding: 2px&quot;&gt;Colori&lt;/div&gt;&lt;table style=&quot;width: 100% ; font-size: 1em&quot; cellpadding=&quot;2&quot; cellspacing=&quot;0&quot;&gt;&lt;tbody&gt;&lt;tr&gt;&lt;td&gt;PK&lt;/td&gt;&lt;td&gt;Id_colore&lt;/td&gt;&lt;/tr&gt;&lt;tr&gt;&lt;td&gt;&lt;br&gt;&lt;/td&gt;&lt;td&gt;&lt;br&gt;&lt;br&gt;&lt;/td&gt;&lt;/tr&gt;&lt;tr&gt;&lt;td&gt;&amp;nbsp;&lt;/td&gt;&lt;td&gt;&lt;br&gt;&lt;/td&gt;&lt;/tr&gt;&lt;/tbody&gt;&lt;/table&gt;" style="verticalAlign=top;align=left;overflow=fill;html=1;fillColor=#F694C1;strokeColor=#AF45ED;fontColor=#095C86;" vertex="1" parent="1">
          <mxGeometry x="2950" y="350" width="180" height="125" as="geometry" />
        </mxCell>
        <mxCell id="do6MTwqMukJzwOy1jM6o-76" value="&lt;div style=&quot;box-sizing: border-box ; width: 100% ; background: #e4e4e4 ; padding: 2px&quot;&gt;Corrieri&lt;/div&gt;&lt;table style=&quot;width: 100% ; font-size: 1em&quot; cellpadding=&quot;2&quot; cellspacing=&quot;0&quot;&gt;&lt;tbody&gt;&lt;tr&gt;&lt;td&gt;PK&lt;/td&gt;&lt;td&gt;Id_corriere&lt;br&gt;&lt;/td&gt;&lt;/tr&gt;&lt;tr&gt;&lt;td&gt;&lt;br&gt;&lt;br&gt;&lt;/td&gt;&lt;td&gt;nome&lt;br&gt;telefono&lt;br&gt;città_lavoro&lt;br&gt;&lt;br&gt;&lt;/td&gt;&lt;/tr&gt;&lt;tr&gt;&lt;td&gt;&amp;nbsp;&lt;/td&gt;&lt;td&gt;&lt;br&gt;&lt;/td&gt;&lt;/tr&gt;&lt;/tbody&gt;&lt;/table&gt;" style="verticalAlign=top;align=left;overflow=fill;html=1;fillColor=#F694C1;strokeColor=#AF45ED;fontColor=#095C86;" vertex="1" parent="1">
          <mxGeometry x="2830" y="625" width="180" height="125" as="geometry" />
        </mxCell>
        <mxCell id="do6MTwqMukJzwOy1jM6o-79" style="edgeStyle=orthogonalEdgeStyle;rounded=0;orthogonalLoop=1;jettySize=auto;html=1;entryX=0.544;entryY=1;entryDx=0;entryDy=0;entryPerimeter=0;startArrow=ERmany;startFill=0;endArrow=none;endFill=0;" edge="1" parent="1" source="do6MTwqMukJzwOy1jM6o-77" target="do6MTwqMukJzwOy1jM6o-76">
          <mxGeometry relative="1" as="geometry" />
        </mxCell>
        <mxCell id="do6MTwqMukJzwOy1jM6o-77" value="&lt;div style=&quot;box-sizing: border-box ; width: 100% ; background: #e4e4e4 ; padding: 2px&quot;&gt;Consegne&lt;/div&gt;&lt;table style=&quot;width: 100% ; font-size: 1em&quot; cellpadding=&quot;2&quot; cellspacing=&quot;0&quot;&gt;&lt;tbody&gt;&lt;tr&gt;&lt;td&gt;PK&lt;/td&gt;&lt;td&gt;Id_consegna&lt;br&gt;&lt;/td&gt;&lt;/tr&gt;&lt;tr&gt;&lt;td&gt;&lt;br&gt;FK&lt;/td&gt;&lt;td&gt;data&lt;br&gt;ora&lt;br&gt;durata&lt;br&gt;Id_corriere&lt;br&gt;&lt;br&gt;&lt;br&gt;&lt;/td&gt;&lt;/tr&gt;&lt;tr&gt;&lt;td&gt;&amp;nbsp;&lt;/td&gt;&lt;td&gt;&lt;br&gt;&lt;/td&gt;&lt;/tr&gt;&lt;/tbody&gt;&lt;/table&gt;" style="verticalAlign=top;align=left;overflow=fill;html=1;fillColor=#F694C1;strokeColor=#AF45ED;fontColor=#095C86;" vertex="1" parent="1">
          <mxGeometry x="2810" y="860" width="180" height="125" as="geometry" />
        </mxCell>
        <mxCell id="do6MTwqMukJzwOy1jM6o-118" style="edgeStyle=orthogonalEdgeStyle;rounded=0;orthogonalLoop=1;jettySize=auto;html=1;startArrow=ERmany;startFill=0;endArrow=ERmany;endFill=0;" edge="1" parent="1" source="do6MTwqMukJzwOy1jM6o-95" target="do6MTwqMukJzwOy1jM6o-100">
          <mxGeometry relative="1" as="geometry" />
        </mxCell>
        <mxCell id="do6MTwqMukJzwOy1jM6o-95" value="&lt;div style=&quot;box-sizing: border-box ; width: 100% ; background: #e4e4e4 ; padding: 2px&quot;&gt;Modelli&lt;/div&gt;&lt;table style=&quot;width: 100% ; font-size: 1em&quot; cellpadding=&quot;2&quot; cellspacing=&quot;0&quot;&gt;&lt;tbody&gt;&lt;tr&gt;&lt;td&gt;PK&lt;/td&gt;&lt;td&gt;Id_modello&lt;br&gt;&lt;/td&gt;&lt;/tr&gt;&lt;tr&gt;&lt;td&gt;&lt;br&gt;&lt;br&gt;&lt;br&gt;FK&lt;br&gt;&lt;/td&gt;&lt;td&gt;&lt;br&gt;nome&lt;br&gt;descrizione&lt;br&gt;Id_tessuto&lt;/td&gt;&lt;/tr&gt;&lt;tr&gt;&lt;td&gt;&amp;nbsp;&lt;/td&gt;&lt;td&gt;&lt;br&gt;&lt;/td&gt;&lt;/tr&gt;&lt;/tbody&gt;&lt;/table&gt;" style="verticalAlign=top;align=left;overflow=fill;html=1;fillColor=#F694C1;strokeColor=#AF45ED;fontColor=#095C86;" vertex="1" parent="1">
          <mxGeometry x="-140" y="250" width="180" height="125" as="geometry" />
        </mxCell>
        <mxCell id="do6MTwqMukJzwOy1jM6o-96" style="edgeStyle=orthogonalEdgeStyle;rounded=0;orthogonalLoop=1;jettySize=auto;html=1;entryX=0.394;entryY=1;entryDx=0;entryDy=0;entryPerimeter=0;startArrow=ERmany;startFill=0;endArrow=none;endFill=0;" edge="1" parent="1" source="do6MTwqMukJzwOy1jM6o-99" target="do6MTwqMukJzwOy1jM6o-95">
          <mxGeometry relative="1" as="geometry" />
        </mxCell>
        <mxCell id="do6MTwqMukJzwOy1jM6o-97" style="edgeStyle=orthogonalEdgeStyle;rounded=0;orthogonalLoop=1;jettySize=auto;html=1;exitX=0.75;exitY=0;exitDx=0;exitDy=0;entryX=0.25;entryY=1;entryDx=0;entryDy=0;startArrow=ERmany;startFill=0;endArrow=oval;endFill=0;" edge="1" parent="1" source="do6MTwqMukJzwOy1jM6o-99" target="do6MTwqMukJzwOy1jM6o-100">
          <mxGeometry relative="1" as="geometry" />
        </mxCell>
        <mxCell id="do6MTwqMukJzwOy1jM6o-98" style="edgeStyle=orthogonalEdgeStyle;rounded=0;orthogonalLoop=1;jettySize=auto;html=1;exitX=0.25;exitY=0;exitDx=0;exitDy=0;startArrow=ERmany;startFill=0;endArrow=oval;endFill=0;entryX=0.5;entryY=1;entryDx=0;entryDy=0;" edge="1" parent="1" source="do6MTwqMukJzwOy1jM6o-99" target="do6MTwqMukJzwOy1jM6o-114">
          <mxGeometry relative="1" as="geometry">
            <mxPoint x="1260" y="490" as="targetPoint" />
          </mxGeometry>
        </mxCell>
        <mxCell id="do6MTwqMukJzwOy1jM6o-121" style="edgeStyle=orthogonalEdgeStyle;rounded=0;orthogonalLoop=1;jettySize=auto;html=1;entryX=0;entryY=0.5;entryDx=0;entryDy=0;startArrow=ERmany;startFill=0;endArrow=ERmany;endFill=0;" edge="1" parent="1" source="do6MTwqMukJzwOy1jM6o-99" target="do6MTwqMukJzwOy1jM6o-103">
          <mxGeometry relative="1" as="geometry" />
        </mxCell>
        <mxCell id="do6MTwqMukJzwOy1jM6o-99" value="&lt;div style=&quot;box-sizing: border-box ; width: 100% ; background: #e4e4e4 ; padding: 2px&quot;&gt;Divani&lt;/div&gt;&lt;table style=&quot;width: 100% ; font-size: 1em&quot; cellpadding=&quot;2&quot; cellspacing=&quot;0&quot;&gt;&lt;tbody&gt;&lt;tr&gt;&lt;td&gt;PK&lt;/td&gt;&lt;td&gt;numero_progressivo&lt;/td&gt;&lt;/tr&gt;&lt;tr&gt;&lt;td&gt;&lt;br&gt;&lt;br&gt;FK&lt;/td&gt;&lt;td&gt;n_posti&lt;br&gt;giorni_realizzazione&lt;br&gt;prezzo&lt;br&gt;&lt;br&gt;Id_modello&lt;br&gt;Id_colore&amp;nbsp;&lt;br&gt;Id_tessuto&lt;br&gt;Id_divano_ordine&lt;br&gt;&lt;br&gt;&lt;br&gt;&lt;/td&gt;&lt;/tr&gt;&lt;tr&gt;&lt;td&gt;&amp;nbsp;&lt;/td&gt;&lt;td&gt;&lt;br&gt;&lt;/td&gt;&lt;/tr&gt;&lt;/tbody&gt;&lt;/table&gt;" style="verticalAlign=top;align=left;overflow=fill;html=1;fillColor=#F694C1;strokeColor=#AF45ED;fontColor=#095C86;" vertex="1" parent="1">
          <mxGeometry x="-90" y="640" width="190" height="180" as="geometry" />
        </mxCell>
        <mxCell id="do6MTwqMukJzwOy1jM6o-119" style="edgeStyle=orthogonalEdgeStyle;rounded=0;orthogonalLoop=1;jettySize=auto;html=1;entryX=0;entryY=0.5;entryDx=0;entryDy=0;startArrow=ERmany;startFill=0;endArrow=ERmany;endFill=0;" edge="1" parent="1" source="do6MTwqMukJzwOy1jM6o-100" target="do6MTwqMukJzwOy1jM6o-114">
          <mxGeometry relative="1" as="geometry" />
        </mxCell>
        <mxCell id="do6MTwqMukJzwOy1jM6o-100" value="&lt;div style=&quot;box-sizing: border-box ; width: 100% ; background: #e4e4e4 ; padding: 2px&quot;&gt;Tessuti&lt;/div&gt;&lt;table style=&quot;width: 100% ; font-size: 1em&quot; cellpadding=&quot;2&quot; cellspacing=&quot;0&quot;&gt;&lt;tbody&gt;&lt;tr&gt;&lt;td&gt;PK&lt;/td&gt;&lt;td&gt;Id_tessuto&lt;br&gt;&lt;/td&gt;&lt;/tr&gt;&lt;tr&gt;&lt;td&gt;&lt;br&gt;FK&lt;/td&gt;&lt;td&gt;nome&lt;br&gt;&lt;br&gt;&lt;br&gt;Id_modello&lt;br&gt;Id_colore&lt;/td&gt;&lt;/tr&gt;&lt;tr&gt;&lt;td&gt;&amp;nbsp;&lt;/td&gt;&lt;td&gt;&lt;br&gt;&lt;/td&gt;&lt;/tr&gt;&lt;/tbody&gt;&lt;/table&gt;" style="verticalAlign=top;align=left;overflow=fill;html=1;fillColor=#F694C1;strokeColor=#AF45ED;fontColor=#095C86;" vertex="1" parent="1">
          <mxGeometry x="540" y="250" width="180" height="140" as="geometry" />
        </mxCell>
        <mxCell id="do6MTwqMukJzwOy1jM6o-101" style="edgeStyle=orthogonalEdgeStyle;rounded=0;orthogonalLoop=1;jettySize=auto;html=1;endArrow=none;endFill=0;startArrow=ERmany;startFill=0;" edge="1" parent="1" source="do6MTwqMukJzwOy1jM6o-103" target="do6MTwqMukJzwOy1jM6o-113">
          <mxGeometry relative="1" as="geometry" />
        </mxCell>
        <mxCell id="do6MTwqMukJzwOy1jM6o-102" style="edgeStyle=orthogonalEdgeStyle;rounded=0;orthogonalLoop=1;jettySize=auto;html=1;entryX=0;entryY=0.5;entryDx=0;entryDy=0;startArrow=ERmany;startFill=0;endArrow=none;endFill=0;" edge="1" parent="1" source="do6MTwqMukJzwOy1jM6o-103" target="do6MTwqMukJzwOy1jM6o-117">
          <mxGeometry relative="1" as="geometry" />
        </mxCell>
        <mxCell id="do6MTwqMukJzwOy1jM6o-103" value="&lt;div style=&quot;box-sizing: border-box ; width: 100% ; background: #e4e4e4 ; padding: 2px&quot;&gt;Ordini&lt;/div&gt;&lt;table style=&quot;width: 100% ; font-size: 1em&quot; cellpadding=&quot;2&quot; cellspacing=&quot;0&quot;&gt;&lt;tbody&gt;&lt;tr&gt;&lt;td&gt;PK&lt;/td&gt;&lt;td&gt;Id_ordine&lt;br&gt;&lt;/td&gt;&lt;/tr&gt;&lt;tr&gt;&lt;td&gt;&lt;br&gt;&lt;br&gt;FK&lt;/td&gt;&lt;td&gt;processato bool&lt;br&gt;data_ordine&lt;br&gt;&lt;br&gt;codice_fiscale&lt;br&gt;Id_consegna&lt;br&gt;Id_divano_ordine&lt;/td&gt;&lt;/tr&gt;&lt;tr&gt;&lt;td&gt;&amp;nbsp;&lt;/td&gt;&lt;td&gt;&lt;br&gt;&lt;/td&gt;&lt;/tr&gt;&lt;/tbody&gt;&lt;/table&gt;" style="verticalAlign=top;align=left;overflow=fill;html=1;fillColor=#F694C1;strokeColor=#AF45ED;fontColor=#095C86;" vertex="1" parent="1">
          <mxGeometry x="610" y="630" width="180" height="140" as="geometry" />
        </mxCell>
        <mxCell id="do6MTwqMukJzwOy1jM6o-113" value="&lt;div style=&quot;box-sizing: border-box ; width: 100% ; background: #e4e4e4 ; padding: 2px&quot;&gt;Clienti&lt;/div&gt;&lt;table style=&quot;width: 100% ; font-size: 1em&quot; cellpadding=&quot;2&quot; cellspacing=&quot;0&quot;&gt;&lt;tbody&gt;&lt;tr&gt;&lt;td&gt;PK&lt;/td&gt;&lt;td&gt;codice_fiscale&lt;br&gt;&lt;/td&gt;&lt;/tr&gt;&lt;tr&gt;&lt;td&gt;&lt;br&gt;&lt;br&gt;&lt;/td&gt;&lt;td&gt;data_nascita&lt;br&gt;telefono&lt;br&gt;indirizzo&lt;br&gt;città_residenza&lt;br&gt;&lt;br&gt;&lt;br&gt;&lt;/td&gt;&lt;/tr&gt;&lt;tr&gt;&lt;td&gt;&amp;nbsp;&lt;/td&gt;&lt;td&gt;&lt;br&gt;&lt;/td&gt;&lt;/tr&gt;&lt;/tbody&gt;&lt;/table&gt;" style="verticalAlign=top;align=left;overflow=fill;html=1;fillColor=#F694C1;strokeColor=#AF45ED;fontColor=#095C86;" vertex="1" parent="1">
          <mxGeometry x="620" y="850" width="180" height="125" as="geometry" />
        </mxCell>
        <mxCell id="do6MTwqMukJzwOy1jM6o-114" value="&lt;div style=&quot;box-sizing: border-box ; width: 100% ; background: #e4e4e4 ; padding: 2px&quot;&gt;Colori&lt;/div&gt;&lt;table style=&quot;width: 100% ; font-size: 1em&quot; cellpadding=&quot;2&quot; cellspacing=&quot;0&quot;&gt;&lt;tbody&gt;&lt;tr&gt;&lt;td&gt;PK&lt;/td&gt;&lt;td&gt;Id_colore&lt;/td&gt;&lt;/tr&gt;&lt;tr&gt;&lt;td&gt;&lt;br&gt;FK&lt;/td&gt;&lt;td&gt;&lt;br&gt;Id_tessuto&lt;/td&gt;&lt;/tr&gt;&lt;tr&gt;&lt;td&gt;&amp;nbsp;&lt;/td&gt;&lt;td&gt;&lt;br&gt;&lt;/td&gt;&lt;/tr&gt;&lt;/tbody&gt;&lt;/table&gt;" style="verticalAlign=top;align=left;overflow=fill;html=1;fillColor=#F694C1;strokeColor=#AF45ED;fontColor=#095C86;" vertex="1" parent="1">
          <mxGeometry x="1170" y="340" width="180" height="125" as="geometry" />
        </mxCell>
        <mxCell id="do6MTwqMukJzwOy1jM6o-115" value="&lt;div style=&quot;box-sizing: border-box ; width: 100% ; background: #e4e4e4 ; padding: 2px&quot;&gt;Corrieri&lt;/div&gt;&lt;table style=&quot;width: 100% ; font-size: 1em&quot; cellpadding=&quot;2&quot; cellspacing=&quot;0&quot;&gt;&lt;tbody&gt;&lt;tr&gt;&lt;td&gt;PK&lt;/td&gt;&lt;td&gt;Id_corriere&lt;br&gt;&lt;/td&gt;&lt;/tr&gt;&lt;tr&gt;&lt;td&gt;&lt;br&gt;&lt;br&gt;&lt;/td&gt;&lt;td&gt;nome&lt;br&gt;telefono&lt;br&gt;città_lavoro&lt;br&gt;&lt;br&gt;&lt;/td&gt;&lt;/tr&gt;&lt;tr&gt;&lt;td&gt;&amp;nbsp;&lt;/td&gt;&lt;td&gt;&lt;br&gt;&lt;/td&gt;&lt;/tr&gt;&lt;/tbody&gt;&lt;/table&gt;" style="verticalAlign=top;align=left;overflow=fill;html=1;fillColor=#F694C1;strokeColor=#AF45ED;fontColor=#095C86;" vertex="1" parent="1">
          <mxGeometry x="1050" y="615" width="180" height="125" as="geometry" />
        </mxCell>
        <mxCell id="do6MTwqMukJzwOy1jM6o-116" style="edgeStyle=orthogonalEdgeStyle;rounded=0;orthogonalLoop=1;jettySize=auto;html=1;entryX=0.544;entryY=1;entryDx=0;entryDy=0;entryPerimeter=0;startArrow=ERmany;startFill=0;endArrow=none;endFill=0;" edge="1" parent="1" source="do6MTwqMukJzwOy1jM6o-117" target="do6MTwqMukJzwOy1jM6o-115">
          <mxGeometry relative="1" as="geometry" />
        </mxCell>
        <mxCell id="do6MTwqMukJzwOy1jM6o-117" value="&lt;div style=&quot;box-sizing: border-box ; width: 100% ; background: #e4e4e4 ; padding: 2px&quot;&gt;Consegne&lt;/div&gt;&lt;table style=&quot;width: 100% ; font-size: 1em&quot; cellpadding=&quot;2&quot; cellspacing=&quot;0&quot;&gt;&lt;tbody&gt;&lt;tr&gt;&lt;td&gt;PK&lt;/td&gt;&lt;td&gt;Id_consegna&lt;br&gt;&lt;/td&gt;&lt;/tr&gt;&lt;tr&gt;&lt;td&gt;&lt;br&gt;FK&lt;/td&gt;&lt;td&gt;data&lt;br&gt;ora&lt;br&gt;durata&lt;br&gt;Id_corriere&lt;br&gt;&lt;br&gt;&lt;br&gt;&lt;/td&gt;&lt;/tr&gt;&lt;tr&gt;&lt;td&gt;&amp;nbsp;&lt;/td&gt;&lt;td&gt;&lt;br&gt;&lt;/td&gt;&lt;/tr&gt;&lt;/tbody&gt;&lt;/table&gt;" style="verticalAlign=top;align=left;overflow=fill;html=1;fillColor=#F694C1;strokeColor=#AF45ED;fontColor=#095C86;" vertex="1" parent="1">
          <mxGeometry x="1030" y="850" width="180" height="125" as="geometry" />
        </mxCell>
      </root>
    </mxGraphModel>
  </diagram>
</mxfile>
